# xmcd
# 
# Track frame offsets:
#     150
#     17353
#     28270
#     39131
#     55770
#     73593
#     89716
#     101131
#     112292
#     124958
#     138866
#     150318
# 
# Disc length: 2188
# 
# Revision: 0
# Processed by: cddbd v1.5.2PL0 Copyright (c) Steve Scherf et al.
# Submitted via: fre:ac v1.0.17
# 
DISCID=9e088a0c
DTITLE=Freddie King - Freddie King Is A Blues Master
DYEAR=1969
DGENRE=Blues
TTITLE0=Play It Cool
TTITLE1=That Will Never Do
TTITLE2=It's Too Late, She's Gone
TTITLE3=Blue Shadows
TTITLE4=Today I Sing The Blues
TTITLE5=Get Out Of My Life, Woman
TTITLE6=Hideaway
TTITLE7=Funky
TTITLE8=Hot Tomato
TTITLE9=Wide Open
TTITLE10=Sweet Thing
TTITLE11=Let Me Down Easy
EXTD=
EXTT0=
EXTT1=
EXTT2=
EXTT3=
EXTT4=
EXTT5=
EXTT6=
EXTT7=
EXTT8=
EXTT9=
EXTT10=
EXTT11=
PLAYORDER=
